<mxfile host="65bd71144e">
    <diagram id="2jDeY1ccGRf-XGF59-sf" name="Page-1">
        <mxGraphModel dx="424" dy="326" grid="1" gridSize="10" guides="1" tooltips="1" connect="1" arrows="1" fold="1" page="1" pageScale="1" pageWidth="827" pageHeight="1169" math="0" shadow="0">
            <root>
                <mxCell id="0"/>
                <mxCell id="1" parent="0"/>
                <mxCell id="2" value="Stop" style="strokeWidth=2;html=1;shape=mxgraph.flowchart.terminator;whiteSpace=wrap;" vertex="1" parent="1">
                    <mxGeometry x="260" y="970" width="100" height="60" as="geometry"/>
                </mxCell>
                <mxCell id="56" value="" style="edgeStyle=none;html=1;entryX=0.5;entryY=0;entryDx=0;entryDy=0;" edge="1" parent="1" source="3" target="57">
                    <mxGeometry relative="1" as="geometry">
                        <mxPoint x="414" y="200" as="targetPoint"/>
                    </mxGeometry>
                </mxCell>
                <mxCell id="3" value="Start" style="strokeWidth=2;html=1;shape=mxgraph.flowchart.terminator;whiteSpace=wrap;" vertex="1" parent="1">
                    <mxGeometry x="364" y="100" width="100" height="60" as="geometry"/>
                </mxCell>
                <mxCell id="60" value="" style="edgeStyle=none;html=1;" edge="1" parent="1" source="57" target="59">
                    <mxGeometry relative="1" as="geometry"/>
                </mxCell>
                <mxCell id="57" value="Input.toLowerCase()" style="rounded=1;whiteSpace=wrap;html=1;absoluteArcSize=1;arcSize=14;strokeWidth=2;" vertex="1" parent="1">
                    <mxGeometry x="342" y="200" width="144" height="80" as="geometry"/>
                </mxCell>
                <mxCell id="61" style="edgeStyle=none;html=1;entryX=0.5;entryY=0;entryDx=0;entryDy=0;entryPerimeter=0;" edge="1" parent="1" source="59" target="71">
                    <mxGeometry relative="1" as="geometry">
                        <mxPoint x="560" y="405" as="targetPoint"/>
                        <Array as="points">
                            <mxPoint x="560" y="370"/>
                        </Array>
                    </mxGeometry>
                </mxCell>
                <mxCell id="63" style="edgeStyle=none;html=1;entryX=0.5;entryY=0;entryDx=0;entryDy=0;" edge="1" parent="1" source="59" target="67">
                    <mxGeometry relative="1" as="geometry">
                        <mxPoint x="414.0000000000001" y="460" as="targetPoint"/>
                    </mxGeometry>
                </mxCell>
                <mxCell id="59" value="if (input === &quot;hello&quot;)" style="strokeWidth=2;html=1;shape=mxgraph.flowchart.decision;whiteSpace=wrap;" vertex="1" parent="1">
                    <mxGeometry x="364" y="320" width="100" height="100" as="geometry"/>
                </mxCell>
                <mxCell id="62" value="No" style="text;html=1;align=center;verticalAlign=middle;resizable=0;points=[];autosize=1;strokeColor=none;fillColor=none;" vertex="1" parent="1">
                    <mxGeometry x="460" y="375" width="40" height="30" as="geometry"/>
                </mxCell>
                <mxCell id="66" value="Yes" style="text;html=1;align=center;verticalAlign=middle;resizable=0;points=[];autosize=1;strokeColor=none;fillColor=none;" vertex="1" parent="1">
                    <mxGeometry x="414" y="420" width="40" height="30" as="geometry"/>
                </mxCell>
                <mxCell id="67" value="return &lt;br&gt;&quot;Hello How are you!&quot;" style="shape=parallelogram;html=1;strokeWidth=2;perimeter=parallelogramPerimeter;whiteSpace=wrap;rounded=1;arcSize=12;size=0.23;" vertex="1" parent="1">
                    <mxGeometry x="364" y="460" width="100" height="60" as="geometry"/>
                </mxCell>
                <mxCell id="69" style="edgeStyle=none;html=1;entryX=0.5;entryY=0;entryDx=0;entryDy=0;entryPerimeter=0;" edge="1" source="71" parent="1" target="89">
                    <mxGeometry relative="1" as="geometry">
                        <mxPoint x="706" y="490" as="targetPoint"/>
                        <Array as="points">
                            <mxPoint x="706" y="455"/>
                        </Array>
                    </mxGeometry>
                </mxCell>
                <mxCell id="70" style="edgeStyle=none;html=1;entryX=0.5;entryY=0;entryDx=0;entryDy=0;" edge="1" source="71" target="74" parent="1">
                    <mxGeometry relative="1" as="geometry">
                        <mxPoint x="560.0000000000001" y="545" as="targetPoint"/>
                    </mxGeometry>
                </mxCell>
                <mxCell id="71" value="if (input ===&lt;br&gt;&amp;nbsp;&quot;how are you&quot;)" style="strokeWidth=2;html=1;shape=mxgraph.flowchart.decision;whiteSpace=wrap;" vertex="1" parent="1">
                    <mxGeometry x="510" y="405" width="100" height="100" as="geometry"/>
                </mxCell>
                <mxCell id="72" value="No" style="text;html=1;align=center;verticalAlign=middle;resizable=0;points=[];autosize=1;strokeColor=none;fillColor=none;" vertex="1" parent="1">
                    <mxGeometry x="606" y="460" width="40" height="30" as="geometry"/>
                </mxCell>
                <mxCell id="73" value="Yes" style="text;html=1;align=center;verticalAlign=middle;resizable=0;points=[];autosize=1;strokeColor=none;fillColor=none;" vertex="1" parent="1">
                    <mxGeometry x="560" y="505" width="40" height="30" as="geometry"/>
                </mxCell>
                <mxCell id="74" value="return &lt;br&gt;&quot;I'm fine, thank you&quot;" style="shape=parallelogram;html=1;strokeWidth=2;perimeter=parallelogramPerimeter;whiteSpace=wrap;rounded=1;arcSize=12;size=0.23;" vertex="1" parent="1">
                    <mxGeometry x="510" y="545" width="100" height="60" as="geometry"/>
                </mxCell>
                <mxCell id="87" style="edgeStyle=none;html=1;entryX=0.5;entryY=0;entryDx=0;entryDy=0;entryPerimeter=0;" edge="1" source="89" parent="1" target="107">
                    <mxGeometry relative="1" as="geometry">
                        <mxPoint x="856" y="585" as="targetPoint"/>
                        <Array as="points">
                            <mxPoint x="856" y="550"/>
                        </Array>
                    </mxGeometry>
                </mxCell>
                <mxCell id="88" style="edgeStyle=none;html=1;entryX=0.5;entryY=0;entryDx=0;entryDy=0;" edge="1" source="89" target="92" parent="1">
                    <mxGeometry relative="1" as="geometry">
                        <mxPoint x="710.0000000000001" y="640" as="targetPoint"/>
                    </mxGeometry>
                </mxCell>
                <mxCell id="89" value="if (input === &quot;goodbye&quot;)" style="strokeWidth=2;html=1;shape=mxgraph.flowchart.decision;whiteSpace=wrap;" vertex="1" parent="1">
                    <mxGeometry x="660" y="500" width="100" height="100" as="geometry"/>
                </mxCell>
                <mxCell id="90" value="No" style="text;html=1;align=center;verticalAlign=middle;resizable=0;points=[];autosize=1;strokeColor=none;fillColor=none;" vertex="1" parent="1">
                    <mxGeometry x="756" y="555" width="40" height="30" as="geometry"/>
                </mxCell>
                <mxCell id="91" value="Yes" style="text;html=1;align=center;verticalAlign=middle;resizable=0;points=[];autosize=1;strokeColor=none;fillColor=none;" vertex="1" parent="1">
                    <mxGeometry x="710" y="600" width="40" height="30" as="geometry"/>
                </mxCell>
                <mxCell id="92" value="return &lt;br&gt;&quot;Talk to you later!&quot;" style="shape=parallelogram;html=1;strokeWidth=2;perimeter=parallelogramPerimeter;whiteSpace=wrap;rounded=1;arcSize=12;size=0.23;" vertex="1" parent="1">
                    <mxGeometry x="660" y="640" width="100" height="60" as="geometry"/>
                </mxCell>
                <mxCell id="105" style="edgeStyle=none;html=1;entryX=0.5;entryY=0;entryDx=0;entryDy=0;entryPerimeter=0;" edge="1" source="107" parent="1" target="113">
                    <mxGeometry relative="1" as="geometry">
                        <mxPoint x="1006" y="685" as="targetPoint"/>
                        <Array as="points">
                            <mxPoint x="1006" y="650"/>
                        </Array>
                    </mxGeometry>
                </mxCell>
                <mxCell id="106" style="edgeStyle=none;html=1;entryX=0.5;entryY=0;entryDx=0;entryDy=0;" edge="1" source="107" target="110" parent="1">
                    <mxGeometry relative="1" as="geometry">
                        <mxPoint x="860.0000000000001" y="740" as="targetPoint"/>
                    </mxGeometry>
                </mxCell>
                <mxCell id="107" value="if (input === &quot;fun fact&quot;)" style="strokeWidth=2;html=1;shape=mxgraph.flowchart.decision;whiteSpace=wrap;" vertex="1" parent="1">
                    <mxGeometry x="810" y="600" width="100" height="100" as="geometry"/>
                </mxCell>
                <mxCell id="108" value="No" style="text;html=1;align=center;verticalAlign=middle;resizable=0;points=[];autosize=1;strokeColor=none;fillColor=none;" vertex="1" parent="1">
                    <mxGeometry x="906" y="655" width="40" height="30" as="geometry"/>
                </mxCell>
                <mxCell id="109" value="Yes" style="text;html=1;align=center;verticalAlign=middle;resizable=0;points=[];autosize=1;strokeColor=none;fillColor=none;" vertex="1" parent="1">
                    <mxGeometry x="860" y="700" width="40" height="30" as="geometry"/>
                </mxCell>
                <mxCell id="110" value="Select and &lt;br&gt;return a&lt;br&gt;&amp;nbsp;random fun fact&amp;nbsp;" style="shape=parallelogram;html=1;strokeWidth=2;perimeter=parallelogramPerimeter;whiteSpace=wrap;rounded=1;arcSize=12;size=0.23;" vertex="1" parent="1">
                    <mxGeometry x="800" y="730" width="120" height="80" as="geometry"/>
                </mxCell>
                <mxCell id="111" style="edgeStyle=none;html=1;entryX=0.5;entryY=0;entryDx=0;entryDy=0;entryPerimeter=0;" edge="1" source="113" parent="1" target="125">
                    <mxGeometry relative="1" as="geometry">
                        <mxPoint x="1156" y="785" as="targetPoint"/>
                        <Array as="points">
                            <mxPoint x="1156" y="750"/>
                        </Array>
                    </mxGeometry>
                </mxCell>
                <mxCell id="112" style="edgeStyle=none;html=1;entryX=0.5;entryY=0;entryDx=0;entryDy=0;" edge="1" source="113" target="116" parent="1">
                    <mxGeometry relative="1" as="geometry">
                        <mxPoint x="1010" y="840" as="targetPoint"/>
                    </mxGeometry>
                </mxCell>
                <mxCell id="113" value="if (input === &quot;random number&quot;)" style="strokeWidth=2;html=1;shape=mxgraph.flowchart.decision;whiteSpace=wrap;" vertex="1" parent="1">
                    <mxGeometry x="956" y="700" width="100" height="100" as="geometry"/>
                </mxCell>
                <mxCell id="114" value="No" style="text;html=1;align=center;verticalAlign=middle;resizable=0;points=[];autosize=1;strokeColor=none;fillColor=none;" vertex="1" parent="1">
                    <mxGeometry x="1056" y="755" width="40" height="30" as="geometry"/>
                </mxCell>
                <mxCell id="115" value="Yes" style="text;html=1;align=center;verticalAlign=middle;resizable=0;points=[];autosize=1;strokeColor=none;fillColor=none;" vertex="1" parent="1">
                    <mxGeometry x="1010" y="800" width="40" height="30" as="geometry"/>
                </mxCell>
                <mxCell id="116" value="generate and &lt;br&gt;return a &lt;br&gt;random number between &lt;br&gt;1 and 100" style="shape=parallelogram;html=1;strokeWidth=2;perimeter=parallelogramPerimeter;whiteSpace=wrap;rounded=1;arcSize=12;size=0.23;" vertex="1" parent="1">
                    <mxGeometry x="943" y="840" width="126" height="80" as="geometry"/>
                </mxCell>
                <mxCell id="123" style="edgeStyle=none;html=1;entryX=0.5;entryY=0;entryDx=0;entryDy=0;entryPerimeter=0;" edge="1" source="125" parent="1">
                    <mxGeometry relative="1" as="geometry">
                        <mxPoint x="1306" y="885" as="targetPoint"/>
                        <Array as="points">
                            <mxPoint x="1306" y="850"/>
                        </Array>
                    </mxGeometry>
                </mxCell>
                <mxCell id="124" style="edgeStyle=none;html=1;entryX=0.5;entryY=0;entryDx=0;entryDy=0;" edge="1" source="125" target="128" parent="1">
                    <mxGeometry relative="1" as="geometry">
                        <mxPoint x="1160" y="940" as="targetPoint"/>
                    </mxGeometry>
                </mxCell>
                <mxCell id="125" value="if (input === &quot;hello&quot;)" style="strokeWidth=2;html=1;shape=mxgraph.flowchart.decision;whiteSpace=wrap;" vertex="1" parent="1">
                    <mxGeometry x="1110" y="800" width="100" height="100" as="geometry"/>
                </mxCell>
                <mxCell id="126" value="No" style="text;html=1;align=center;verticalAlign=middle;resizable=0;points=[];autosize=1;strokeColor=none;fillColor=none;" vertex="1" parent="1">
                    <mxGeometry x="1206" y="855" width="40" height="30" as="geometry"/>
                </mxCell>
                <mxCell id="127" value="Yes" style="text;html=1;align=center;verticalAlign=middle;resizable=0;points=[];autosize=1;strokeColor=none;fillColor=none;" vertex="1" parent="1">
                    <mxGeometry x="1160" y="900" width="40" height="30" as="geometry"/>
                </mxCell>
                <mxCell id="128" value="return &lt;br&gt;&quot;Hello How are you!&quot;" style="shape=parallelogram;html=1;strokeWidth=2;perimeter=parallelogramPerimeter;whiteSpace=wrap;rounded=1;arcSize=12;size=0.23;" vertex="1" parent="1">
                    <mxGeometry x="1110" y="940" width="100" height="60" as="geometry"/>
                </mxCell>
            </root>
        </mxGraphModel>
    </diagram>
</mxfile>